<svg id="Layer_1" data-name="Layer 1" xmlns="http://www.w3.org/2000/svg" viewBox="0 0 24 24" stroke-width="1.5" width="24" height="24" color="#000000"><defs><style>.cls-637b8b31f95e86b59c57a270-1{fill:none;stroke:currentColor;stroke-miterlimit:10;}</style></defs><circle class="cls-637b8b31f95e86b59c57a270-1" cx="16.3" cy="3.89" r="0.48"></circle><circle class="cls-637b8b31f95e86b59c57a270-1" cx="6.27" cy="17.73" r="0.95"></circle><path class="cls-637b8b31f95e86b59c57a270-1" d="M10.09,14.89V5.32a3.82,3.82,0,0,0-7.64,0v9.57a4.77,4.77,0,1,0,8.6,2.84A4.74,4.74,0,0,0,10.09,14.89Z"></path><line class="cls-637b8b31f95e86b59c57a270-1" x1="6.27" y1="10.09" x2="6.27" y2="16.77"></line><line class="cls-637b8b31f95e86b59c57a270-1" x1="10.09" y1="6.27" x2="12.95" y2="6.27"></line><line class="cls-637b8b31f95e86b59c57a270-1" x1="10.09" y1="10.09" x2="12.95" y2="10.09"></line><line class="cls-637b8b31f95e86b59c57a270-1" x1="10.09" y1="13.91" x2="12.95" y2="13.91"></line><path class="cls-637b8b31f95e86b59c57a270-1" d="M22.5,10.09A1.9,1.9,0,0,1,20.59,12h0a1.91,1.91,0,0,1-1.91-1.91V7.23a1.91,1.91,0,0,1,1.91-1.91h0A1.9,1.9,0,0,1,22.5,7.23"></path></svg>